<svg xmlns="http://www.w3.org/2000/svg" viewBox="0 0 1024 1024"><g fill="none" stroke="#8d9674" stroke-width="2"><path d="M475.18 353.17c2.75 7.35 10.34 13.08 17.55 15.81q24.2 9.16 46.47-3.49 6.96-3.96 10.04-11.08 1.71-3.93 2.61-14.09 9.13-103.25 18.33-206.51.77-8.66-.24-13.1c-3.19-13.97-16.15-23.89-29.04-28.55q-27.05-9.78-54.42-.87c-14.06 4.58-27.99 14.63-31.45 29.72q-.92 4.01-.34 10.53 9.29 105.02 18.61 210.02.76 8.59 1.88 11.61M157.5 373.33c64.44 30 128.88 60 193.48 89.63 16.87 7.74 35.47-9.62 42.31-23.39 5.72-11.52 8.89-27.26 1.12-38.22q-2.44-3.45-10.4-9-83.1-58.05-166.19-116.11-10.78-7.53-12.95-8.54c-11.24-5.23-26.41-1.56-36.11 4.8-24.69 16.16-42.03 49.58-33.44 78.9 3.45 11.8 10.5 16.49 22.18 21.93M630.77 401.12c-15.77 22.21 10.4 67.57 37.95 63.44q3.23-.48 10.11-3.67 95.16-44.16 190.33-88.33 7.53-3.5 10.41-5.74c12.16-9.52 14.4-29.5 11.13-43.86q-7.39-32.43-34.95-50.72c-10.03-6.65-28.02-10.38-38.69-2.93Q727.87 331.6 638.7 393.94q-5.62 3.93-7.93 7.18M387.58 628.29c27.84-19.43.31-70.79-29.33-70.1q-3.7.09-5.94 1.12-97.34 45.09-194.65 90.24-8.45 3.93-10.26 5.13c-10.03 6.66-14.48 20.11-14.38 31.83.18 20.68 9.77 40.71 24.38 55.07 10.81 10.62 28.6 19.69 43.81 15q4.73-1.45 13.95-7.9 86.19-60.2 172.42-120.39M637.95 628.53q88.78 62.28 177.89 124.09c15.29 10.6 35.41 3.27 48.16-7.87q23.85-20.82 27.7-51.98c1.65-13.38-2.13-29.08-13.14-37.3q-2.52-1.88-17.83-8.98-91.75-42.56-183.52-85.08-6.02-2.79-9.78-3.11c-10.68-.9-21.75 6.21-28.51 14.13-9.66 11.34-15.66 27.9-11.43 42.81 1.83 6.43 4.67 9.22 10.46 13.29M455.03 901.91c3.67 16.34 19.7 26.79 35.05 30.99 23.31 6.37 50.6 3.27 69.19-13.1 9.35-8.23 12.09-17.47 11-29.78q-9.03-101.59-18.07-203.18-1.18-13.23-1.2-13.3c-6.34-29.34-63.29-30.57-75.28-4.82q-1.63 3.49-2.19 9.84-9.42 106.24-18.83 212.49-.6 6.73.33 10.86" vector-effect="non-scaling-stroke"/></g><path fill="#1a75cf" d="M0 0h1024v1024H0V0Zm475.18 353.17c2.75 7.35 10.34 13.08 17.55 15.81q24.2 9.16 46.47-3.49 6.96-3.96 10.04-11.08 1.71-3.93 2.61-14.09 9.13-103.25 18.33-206.51.77-8.66-.24-13.1c-3.19-13.97-16.15-23.89-29.04-28.55q-27.05-9.78-54.42-.87c-14.06 4.58-27.99 14.63-31.45 29.72q-.92 4.01-.34 10.53 9.29 105.02 18.61 210.02.76 8.59 1.88 11.61ZM157.5 373.33c64.44 30 128.88 60 193.48 89.63 16.87 7.74 35.47-9.62 42.31-23.39 5.72-11.52 8.89-27.26 1.12-38.22q-2.44-3.45-10.4-9-83.1-58.05-166.19-116.11-10.78-7.53-12.95-8.54c-11.24-5.23-26.41-1.56-36.11 4.8-24.69 16.16-42.03 49.58-33.44 78.9 3.45 11.8 10.5 16.49 22.18 21.93Zm473.27 27.79c-15.77 22.21 10.4 67.57 37.95 63.44q3.23-.48 10.11-3.67 95.16-44.16 190.33-88.33 7.53-3.5 10.41-5.74c12.16-9.52 14.4-29.5 11.13-43.86q-7.39-32.43-34.95-50.72c-10.03-6.65-28.02-10.38-38.69-2.93Q727.87 331.6 638.7 393.94q-5.62 3.93-7.93 7.18ZM387.58 628.29c27.84-19.43.31-70.79-29.33-70.1q-3.7.09-5.94 1.12-97.34 45.09-194.65 90.24-8.45 3.93-10.26 5.13c-10.03 6.66-14.48 20.11-14.38 31.83.18 20.68 9.77 40.71 24.38 55.07 10.81 10.62 28.6 19.69 43.81 15q4.73-1.45 13.95-7.9 86.19-60.2 172.42-120.39Zm250.37.24q88.78 62.28 177.89 124.09c15.29 10.6 35.41 3.27 48.16-7.87q23.85-20.82 27.7-51.98c1.65-13.38-2.13-29.08-13.14-37.3q-2.52-1.88-17.83-8.98-91.75-42.56-183.52-85.08-6.02-2.79-9.78-3.11c-10.68-.9-21.75 6.21-28.51 14.13-9.66 11.34-15.66 27.9-11.43 42.81 1.83 6.43 4.67 9.22 10.46 13.29ZM455.03 901.91c3.67 16.34 19.7 26.79 35.05 30.99 23.31 6.37 50.6 3.27 69.19-13.1 9.35-8.23 12.09-17.47 11-29.78q-9.03-101.59-18.07-203.18-1.18-13.23-1.2-13.3c-6.34-29.34-63.29-30.57-75.28-4.82q-1.63 3.49-2.19 9.84-9.42 106.24-18.83 212.49-.6 6.73.33 10.86Z"/><path fill="#ffb718" d="M492.73 368.98c-7.21-2.73-14.8-8.46-17.55-15.81q-1.12-3.02-1.88-11.61-9.32-105-18.61-210.02-.58-6.52.34-10.53c3.46-15.09 17.39-25.14 31.45-29.72q27.37-8.91 54.42.87c12.89 4.66 25.85 14.58 29.04 28.55q1.01 4.44.24 13.1-9.2 103.26-18.33 206.51-.9 10.16-2.61 14.09-3.08 7.12-10.04 11.08-22.27 12.65-46.47 3.49ZM350.98 462.96c-64.6-29.63-129.04-59.63-193.48-89.63-11.68-5.44-18.73-10.13-22.18-21.93-8.59-29.32 8.75-62.74 33.44-78.9 9.7-6.36 24.87-10.03 36.11-4.8q2.17 1.01 12.95 8.54 83.09 58.06 166.19 116.11 7.96 5.55 10.4 9c7.77 10.96 4.6 26.7-1.12 38.22-6.84 13.77-25.44 31.13-42.31 23.39ZM668.72 464.56c-27.55 4.13-53.72-41.23-37.95-63.44q2.31-3.25 7.93-7.18 89.17-62.34 178.36-124.63c10.67-7.45 28.66-3.72 38.69 2.93q27.56 18.29 34.95 50.72c3.27 14.36 1.03 34.34-11.13 43.86q-2.88 2.24-10.41 5.74-95.17 44.17-190.33 88.33-6.88 3.19-10.11 3.67ZM358.25 558.19c29.64-.69 57.17 50.67 29.33 70.1q-86.23 60.19-172.42 120.39-9.22 6.45-13.95 7.9c-15.21 4.69-33-4.38-43.81-15-14.61-14.36-24.2-34.39-24.38-55.07-.1-11.72 4.35-25.17 14.38-31.83q1.81-1.2 10.26-5.13 97.31-45.15 194.65-90.24 2.24-1.03 5.94-1.12ZM637.95 628.53c-5.79-4.07-8.63-6.86-10.46-13.29-4.23-14.91 1.77-31.47 11.43-42.81 6.76-7.92 17.83-15.03 28.51-14.13q3.76.32 9.78 3.11 91.77 42.52 183.52 85.08 15.31 7.1 17.83 8.98c11.01 8.22 14.79 23.92 13.14 37.3q-3.85 31.16-27.7 51.98c-12.75 11.14-32.87 18.47-48.16 7.87q-89.11-61.81-177.89-124.09ZM490.08 932.9c-15.35-4.2-31.38-14.65-35.05-30.99q-.93-4.13-.33-10.86 9.41-106.25 18.83-212.49.56-6.35 2.19-9.84c11.99-25.75 68.94-24.52 75.28 4.82q.02.07 1.2 13.3 9.04 101.59 18.07 203.18c1.09 12.31-1.65 21.55-11 29.78-18.59 16.37-45.88 19.47-69.19 13.1Z"/></svg>