<svg xmlns="http://www.w3.org/2000/svg" viewBox="0 0 250 250"><g fill="none" stroke-width="2"><path stroke="#ef8f93" d="M224.66 87.38a7.67 7.67 0 0 0-7.67-7.67H32.93a7.67 7.67 0 0 0-7.67 7.67v78.18a7.67 7.67 0 0 0 7.67 7.67h184.06a7.67 7.67 0 0 0 7.67-7.67V87.38" vector-effect="non-scaling-stroke"/><path stroke="#f8dd8d" d="M221.11 90.23c.58-2.81-.95-7.98-4.42-7.98H36.65c-5.34 0-7.79 1.78-7.7 7.24q.02 1.27 1.28 1.26l190.28-.02a.62.61-84.2 0 0 .6-.5" vector-effect="non-scaling-stroke"/><path stroke="#ef8f93" d="M90.45 138.88c3.53-4.13 7.57-8.53 10.77-12.89q.3-.42-.04-.82l-13.69-15.65c-5.8-6.63 1.17-12.97 5.66-7.92q7.11 8.02 14.04 15.97a.61.6-46.2 0 0 .92-.02q5.75-7.05 11.68-14.17 2.08-2.5 3.5-3.11c4.54-1.93 7.83 4 4.63 8.06q-6.67 8.42-13.5 16.56a.69.68 44.7 0 0 .01.9l9.15 10.4a.7.69 44.7 0 1 .01.92l-5.4 6.33q-.43.51-.88.01l-9.05-10.2a.44.44 0 0 0-.66.01c-6.59 8-12.82 17.14-20.75 23.82q-.49.42.16.42h133.74q.5 0 .5-.5V95.76q0-.49-.49-.49-13.6-.06-27.21-.02c-9.53.03-17.01 1.64-23.17 8.14q-10.72 11.31-20.75 23.42-.29.35.01.69 7.24 8.43 14.25 17.16c4.27 5.32-2.09 11.67-6.81 6.25q-6.9-7.96-13.77-16.09-.33-.4-.67-.01-6.37 7.41-12.82 14.76c-5.47 6.24-11.99-.42-6.35-7.07q6.43-7.58 12.95-15.13.35-.4.01-.81l-9.04-10.66q-.3-.36-.01-.73l5.5-6.92a.5.5 0 0 1 .77-.01l9.11 11q.31.37.62.01c6.93-7.94 13.25-16.74 21.26-23.61q.45-.39-.15-.39H29.5q-.5 0-.5.5v61.24q0 .51.51.51 14.01 0 28.06.02c16.78.02 21.96-5.86 32.88-18.64" vector-effect="non-scaling-stroke"/><path stroke="#f8dd8d" d="m220.5 162.16-190.46-.03a.9.9 0 0 0-.89.77c-1.04 7.1 3.96 7.86 9.71 7.86q86.67-.02 173.34-.01c5.73 0 9.91-1.47 8.97-8.06q-.08-.53-.67-.53" vector-effect="non-scaling-stroke"/><path stroke="#ef8f93" d="M85.45 125.25a25.12 25.12 0 0 0-25.12-25.12 25.12 25.12 0 0 0-25.12 25.12 25.12 25.12 0 0 0 25.12 25.12 25.12 25.12 0 0 0 25.12-25.12M217.06 125.25a25.12 25.12 0 0 0-25.12-25.12 25.12 25.12 0 0 0-25.12 25.12 25.12 25.12 0 0 0 25.12 25.12 25.12 25.12 0 0 0 25.12-25.12" vector-effect="non-scaling-stroke"/><path stroke="#ef8f93" d="M76.25 125.26a15.92 15.92 0 0 0-15.92-15.92 15.92 15.92 0 0 0-15.92 15.92 15.92 15.92 0 0 0 15.92 15.92 15.92 15.92 0 0 0 15.92-15.92M207.86 125.25a15.92 15.92 0 0 0-15.92-15.92 15.92 15.92 0 0 0-15.92 15.92 15.92 15.92 0 0 0 15.92 15.92 15.92 15.92 0 0 0 15.92-15.92" vector-effect="non-scaling-stroke"/></g><path fill="#df1f26" d="M249.44 124.89A124.61 124.61 0 0 1 124.83 249.5 124.61 124.61 0 0 1 .22 124.89 124.61 124.61 0 0 1 124.83.28a124.61 124.61 0 0 1 124.61 124.61Zm-24.78-37.51a7.67 7.67 0 0 0-7.67-7.67H32.93a7.67 7.67 0 0 0-7.67 7.67v78.18a7.67 7.67 0 0 0 7.67 7.67h184.06a7.67 7.67 0 0 0 7.67-7.67V87.38Z"/><path fill="#fff" d="M224.66 165.56a7.67 7.67 0 0 1-7.67 7.67H32.93a7.67 7.67 0 0 1-7.67-7.67V87.38a7.67 7.67 0 0 1 7.67-7.67h184.06a7.67 7.67 0 0 1 7.67 7.67v78.18Zm-3.55-75.33c.58-2.81-.95-7.98-4.42-7.98H36.65c-5.34 0-7.79 1.78-7.7 7.24q.02 1.27 1.28 1.26l190.28-.02a.62.61-84.2 0 0 .6-.5ZM90.45 138.88c3.53-4.13 7.57-8.53 10.77-12.89q.3-.42-.04-.82l-13.69-15.65c-5.8-6.63 1.17-12.97 5.66-7.92q7.11 8.02 14.04 15.97a.61.6-46.2 0 0 .92-.02q5.75-7.05 11.68-14.17 2.08-2.5 3.5-3.11c4.54-1.93 7.83 4 4.63 8.06q-6.67 8.42-13.5 16.56a.69.68 44.7 0 0 .01.9l9.15 10.4a.7.69 44.7 0 1 .01.92l-5.4 6.33q-.43.51-.88.01l-9.05-10.2a.44.44 0 0 0-.66.01c-6.59 8-12.82 17.14-20.75 23.82q-.49.42.16.42h133.74q.5 0 .5-.5V95.76q0-.49-.49-.49-13.6-.06-27.21-.02c-9.53.03-17.01 1.64-23.17 8.14q-10.72 11.31-20.75 23.42-.29.35.01.69 7.24 8.43 14.25 17.16c4.27 5.32-2.09 11.67-6.81 6.25q-6.9-7.96-13.77-16.09-.33-.4-.67-.01-6.37 7.41-12.82 14.76c-5.47 6.24-11.99-.42-6.35-7.07q6.43-7.58 12.95-15.13.35-.4.01-.81l-9.04-10.66q-.3-.36-.01-.73l5.5-6.92a.5.5 0 0 1 .77-.01l9.11 11q.31.37.62.01c6.93-7.94 13.25-16.74 21.26-23.61q.45-.39-.15-.39H29.5q-.5 0-.5.5v61.24q0 .51.51.51 14.01 0 28.06.02c16.78.02 21.96-5.86 32.88-18.64Zm130.05 23.28-190.46-.03a.9.9 0 0 0-.89.77c-1.04 7.1 3.96 7.86 9.71 7.86q86.67-.02 173.34-.01c5.73 0 9.91-1.47 8.97-8.06q-.08-.53-.67-.53Z"/><path fill="#f1ba1a" d="M216.69 82.25c3.47 0 5 5.17 4.42 7.98a.62.61-84.2 0 1-.6.5l-190.28.02q-1.26.01-1.28-1.26c-.09-5.46 2.36-7.24 7.7-7.24h180.04Z"/><path fill="#df1f26" d="M101.22 125.99c-3.2 4.36-7.24 8.76-10.77 12.89-10.92 12.78-16.1 18.66-32.88 18.64q-14.05-.02-28.06-.02-.51 0-.51-.51V95.75q0-.5.5-.5h134.99q.6 0 .15.39c-8.01 6.87-14.33 15.67-21.26 23.61q-.31.36-.62-.01l-9.11-11a.5.5 0 0 0-.77.01l-5.5 6.92q-.29.37.01.73l9.04 10.66q.34.41-.01.81-6.52 7.55-12.95 15.13c-5.64 6.65.88 13.31 6.35 7.07q6.45-7.35 12.82-14.76.34-.39.67.01 6.87 8.13 13.77 16.09c4.72 5.42 11.08-.93 6.81-6.25q-7.01-8.73-14.25-17.16-.3-.34-.01-.69 10.03-12.11 20.75-23.42c6.16-6.5 13.64-8.11 23.17-8.14q13.61-.04 27.21.02.49 0 .49.49V157q0 .5-.5.5H87.01q-.65 0-.16-.42c7.93-6.68 14.16-15.82 20.75-23.82a.44.44 0 0 1 .66-.01l9.05 10.2q.45.5.88-.01l5.4-6.33a.7.69 44.7 0 0-.01-.92l-9.15-10.4a.69.68 44.7 0 1-.01-.9q6.83-8.14 13.5-16.56c3.2-4.06-.09-9.99-4.63-8.06q-1.42.61-3.5 3.11-5.93 7.12-11.68 14.17a.61.6-46.2 0 1-.92.02q-6.93-7.95-14.04-15.97c-4.49-5.05-11.46 1.29-5.66 7.92l13.69 15.65q.34.4.04.82Zm-15.77-.74a25.12 25.12 0 0 0-25.12-25.12 25.12 25.12 0 0 0-25.12 25.12 25.12 25.12 0 0 0 25.12 25.12 25.12 25.12 0 0 0 25.12-25.12Zm131.61 0a25.12 25.12 0 0 0-25.12-25.12 25.12 25.12 0 0 0-25.12 25.12 25.12 25.12 0 0 0 25.12 25.12 25.12 25.12 0 0 0 25.12-25.12Z"/><path fill="#fff" d="M85.45 125.25a25.12 25.12 0 0 1-25.12 25.12 25.12 25.12 0 0 1-25.12-25.12 25.12 25.12 0 0 1 25.12-25.12 25.12 25.12 0 0 1 25.12 25.12Zm-9.2.01a15.92 15.92 0 0 0-15.92-15.92 15.92 15.92 0 0 0-15.92 15.92 15.92 15.92 0 0 0 15.92 15.92 15.92 15.92 0 0 0 15.92-15.92ZM217.06 125.25a25.12 25.12 0 0 1-25.12 25.12 25.12 25.12 0 0 1-25.12-25.12 25.12 25.12 0 0 1 25.12-25.12 25.12 25.12 0 0 1 25.12 25.12Zm-9.2 0a15.92 15.92 0 0 0-15.92-15.92 15.92 15.92 0 0 0-15.92 15.92 15.92 15.92 0 0 0 15.92 15.92 15.92 15.92 0 0 0 15.92-15.92Z"/><circle cx="60.33" cy="125.26" r="15.92" fill="#df1f26"/><circle cx="191.94" cy="125.25" r="15.92" fill="#df1f26"/><path fill="#f1ba1a" d="m30.04 162.13 190.46.03q.59 0 .67.53c.94 6.59-3.24 8.06-8.97 8.06q-86.67-.01-173.34.01c-5.75 0-10.75-.76-9.71-7.86a.9.9 0 0 1 .89-.77Z"/></svg>