<svg xmlns="http://www.w3.org/2000/svg" viewBox="0 0 630 653"><g fill="none" stroke-width="2"><path stroke="#80b2a3" d="M192.2 589.66c-1.88 12.49-1.79 26.33 14.72 26.33q72.31.02 144.61.01c18.45 0 16.08-12.95 15.9-26.47q-.01-.52.5-.52 65-.04 130 0 7.98 0 11.45-1.39c7.6-3.05 13.03-12.02 13.78-19.69q23.67-242.45 47.46-484.89c1.4-14.24-6.68-26.14-20.18-28.85q-3.41-.68-19.94-.69h-440q-3.54 0-8.19.33C66.29 54.98 58 68.85 59.48 83.77q23.93 242.15 47.91 484.29c.97 9.82 9.33 20.94 20.11 20.94q32.21-.01 64.12 0 .68 0 .58.66" vector-effect="non-scaling-stroke"/><path stroke="#ffb481" d="M465.11 131.61a.35.35 0 0 0-.24-.61H133.1a.35.35 0 0 0-.35.35v114.8a.35.35 0 0 0 .35.35h206.36a.35.35 0 0 0 .24-.09l125.41-114.8" vector-effect="non-scaling-stroke"/><path stroke="#ff8187" d="m282.22 351.11 63.2.08q.66 0 .76.65l2.35 15.62a.23.23 0 0 0 .46 0l2.36-15.66q.07-.48.55-.48 39.08-.37 56.85-.05c1.91.03 2.43.41 3.47-1.42 22.82-40.36 51.42-75.88 84.56-108.22q.48-.46.48-1.12l-.01-109.01q0-.5-.5-.5h-11.24a1.91 1.91 0 0 0-1.3.51q-59.99 54.78-118.55 108.53c-10.94 10.04-20.29 19.48-28.36 30.01q-29.78 38.83-55.45 80.39-.42.67.37.67" vector-effect="non-scaling-stroke"/><path stroke="#80b2a3" d="M164.25 411.34a.34.34 0 0 1 .34-.34h27.32a.34.34 0 0 0 .34-.34V394.9a.34.34 0 0 0-.34-.34l-27.32-.2a.34.34 0 0 1-.34-.34v-16.68a.34.34 0 0 1 .34-.34h29.07a.34.34 0 0 0 .34-.34v-15.81a.34.34 0 0 0-.34-.34l-49.57-.04a.34.34 0 0 0-.34.34v86.21a.34.34 0 0 0 .34.34l51.07-.13a.34.34 0 0 0 .34-.34v-15.48a.34.34 0 0 0-.34-.34l-30.57-.32a.34.34 0 0 1-.34-.34v-19.07M225.56 430.72a.31.31 0 0 1-.31-.31v-69.6a.31.31 0 0 0-.31-.31h-19.73a.31.31 0 0 0-.31.31l-.06 86.14a.31.31 0 0 0 .31.31l49.54-.01a.31.31 0 0 0 .31-.31v-15.59a.31.31 0 0 0-.31-.31l-29.13-.32M281.75 377.32a.32.32 0 0 1 .32-.32h29.36a.32.32 0 0 0 .32-.32v-15.94a.32.32 0 0 0-.32-.32l-49.86.1a.32.32 0 0 0-.32.32v86.08a.32.32 0 0 0 .32.32l51.11.02a.32.32 0 0 0 .32-.32v-15.56a.32.32 0 0 0-.32-.32l-30.62-.38a.32.32 0 0 1-.32-.32l.21-19.04a.32.32 0 0 1 .32-.32h27.15a.32.32 0 0 0 .32-.32l.15-15.86a.32.32 0 0 0-.32-.32h-27.5a.32.32 0 0 1-.32-.32v-16.86M349.04 426.46a.34.34 0 0 1-.67 0l-10.17-65.92a.34.34 0 0 0-.33-.29l-21.15.06a.34.34 0 0 0-.33.41l18.91 86.24a.34.34 0 0 0 .33.27l25.65.07a.34.34 0 0 0 .33-.27l19.55-86.15a.34.34 0 0 0-.34-.42l-21.22.06a.34.34 0 0 0-.33.29l-10.23 65.65M408.86 430.75a.32.32 0 0 1-.32-.32l-.13-19.11a.32.32 0 0 1 .32-.32h27.45a.32.32 0 0 0 .32-.32v-15.9a.32.32 0 0 0-.32-.32l-27.56.06a.32.32 0 0 1-.32-.32l-.05-16.88a.32.32 0 0 1 .32-.32h29.36a.32.32 0 0 0 .32-.32v-15.86a.32.32 0 0 0-.32-.32h-49.61a.32.32 0 0 0-.32.32v86.2a.32.32 0 0 0 .32.32l51.11-.11a.32.32 0 0 0 .32-.32v-15.84a.32.32 0 0 0-.32-.32h-30.57M467.69 388l17.47 58.39q.27.9 1.21.9l21.74-.05q.55 0 .54-.54l-.2-85.97a.4.4 0 0 0-.4-.39l-17.93.19q-.35.01-.35.35l-.09 55.37a.29.29 0 0 1-.56.08l-16.48-55.32a.69.68-7.8 0 0-.66-.49l-22.46-.06a.52.52 0 0 0-.52.52v85.48q0 .77.77.78l16.93.05q.55 0 .55-.55v-58.68a.23.22 37 0 1 .44-.06" vector-effect="non-scaling-stroke"/><path stroke="#ff8187" d="m251.71 407.97-5.53 13.11a.49.48 11.3 0 0 .45.67h4.87q.5 0 .5-.5v-13.23a.15.15 0 0 0-.29-.05M327.85 455.99l-5.33-24.76a.2.2 0 0 0-.39.05l.16 24.46q.01.78-.77.78l-87.61.16q-.45 0-.6.42-15.57 46.4-23.85 94.64-1.63 9.53-4.78 42.4c-.26 2.78-.18 5.63-.18 8.38a.73.73 0 0 0 .73.73h149.03a.42.42 0 0 0 .42-.43c-1.44-57.62 7.47-114.11 23.29-169.41 1.64-5.7.7-13.22.81-19.18a.15.15 0 0 0-.29-.03l-9.5 41.78q-.12.54-.66.54l-39.77.04q-.58 0-.71-.57M291.53 421.75h28.02q.82 0 .66-.8l-.91-4.66q0-.03-.14.05-.09.05-.29-.02h-.01q.68 1.55.2 3.1-.17.58-.78.58h-26.53q-.75 0-.75.75v.47a.53.53 0 0 0 .53.53" vector-effect="non-scaling-stroke"/></g><path fill="#006546" d="M0 0h630v653H0V0Zm192.2 589.66c-1.88 12.49-1.79 26.33 14.72 26.33q72.31.02 144.61.01c18.45 0 16.08-12.95 15.9-26.47q-.01-.52.5-.52 65-.04 130 0 7.98 0 11.45-1.39c7.6-3.05 13.03-12.02 13.78-19.69q23.67-242.45 47.46-484.89c1.4-14.24-6.68-26.14-20.18-28.85q-3.41-.68-19.94-.69h-440q-3.54 0-8.19.33C66.29 54.98 58 68.85 59.48 83.77q23.93 242.15 47.91 484.29c.97 9.82 9.33 20.94 20.11 20.94q32.21-.01 64.12 0 .68 0 .58.66Z"/><path fill="#fff" d="M192.2 589.66q.1-.66-.58-.66-31.91-.01-64.12 0c-10.78 0-19.14-11.12-20.11-20.94Q83.41 325.92 59.48 83.77C58 68.85 66.29 54.98 82.31 53.83q4.65-.33 8.19-.33h440q16.53.01 19.94.69c13.5 2.71 21.58 14.61 20.18 28.85q-23.79 242.44-47.46 484.89c-.75 7.67-6.18 16.64-13.78 19.69q-3.47 1.39-11.45 1.39-65-.04-130 0-.51 0-.5.52c.18 13.52 2.55 26.47-15.9 26.47q-72.3.01-144.61-.01c-16.51 0-16.6-13.84-14.72-26.33Zm272.91-458.05a.35.35 0 0 0-.24-.61H133.1a.35.35 0 0 0-.35.35v114.8a.35.35 0 0 0 .35.35h206.36a.35.35 0 0 0 .24-.09l125.41-114.8Zm-182.89 219.5 63.2.08q.66 0 .76.65l2.35 15.62a.23.23 0 0 0 .46 0l2.36-15.66q.07-.48.55-.48 39.08-.37 56.85-.05c1.91.03 2.43.41 3.47-1.42 22.82-40.36 51.42-75.88 84.56-108.22q.48-.46.48-1.12l-.01-109.01q0-.5-.5-.5h-11.24a1.91 1.91 0 0 0-1.3.51q-59.99 54.78-118.55 108.53c-10.94 10.04-20.29 19.48-28.36 30.01q-29.78 38.83-55.45 80.39-.42.67.37.67Zm-117.97 60.23a.34.34 0 0 1 .34-.34h27.32a.34.34 0 0 0 .34-.34V394.9a.34.34 0 0 0-.34-.34l-27.32-.2a.34.34 0 0 1-.34-.34v-16.68a.34.34 0 0 1 .34-.34h29.07a.34.34 0 0 0 .34-.34v-15.81a.34.34 0 0 0-.34-.34l-49.57-.04a.34.34 0 0 0-.34.34v86.21a.34.34 0 0 0 .34.34l51.07-.13a.34.34 0 0 0 .34-.34v-15.48a.34.34 0 0 0-.34-.34l-30.57-.32a.34.34 0 0 1-.34-.34v-19.07Zm61.31 19.38a.31.31 0 0 1-.31-.31v-69.6a.31.31 0 0 0-.31-.31h-19.73a.31.31 0 0 0-.31.31l-.06 86.14a.31.31 0 0 0 .31.31l49.54-.01a.31.31 0 0 0 .31-.31v-15.59a.31.31 0 0 0-.31-.31l-29.13-.32Zm56.19-53.4a.32.32 0 0 1 .32-.32h29.36a.32.32 0 0 0 .32-.32v-15.94a.32.32 0 0 0-.32-.32l-49.86.1a.32.32 0 0 0-.32.32v86.08a.32.32 0 0 0 .32.32l51.11.02a.32.32 0 0 0 .32-.32v-15.56a.32.32 0 0 0-.32-.32l-30.62-.38a.32.32 0 0 1-.32-.32l.21-19.04a.32.32 0 0 1 .32-.32h27.15a.32.32 0 0 0 .32-.32l.15-15.86a.32.32 0 0 0-.32-.32h-27.5a.32.32 0 0 1-.32-.32v-16.86Zm67.29 49.14a.34.34 0 0 1-.67 0l-10.17-65.92a.34.34 0 0 0-.33-.29l-21.15.06a.34.34 0 0 0-.33.41l18.91 86.24a.34.34 0 0 0 .33.27l25.65.07a.34.34 0 0 0 .33-.27l19.55-86.15a.34.34 0 0 0-.34-.42l-21.22.06a.34.34 0 0 0-.33.29l-10.23 65.65Zm59.82 4.29a.32.32 0 0 1-.32-.32l-.13-19.11a.32.32 0 0 1 .32-.32h27.45a.32.32 0 0 0 .32-.32v-15.9a.32.32 0 0 0-.32-.32l-27.56.06a.32.32 0 0 1-.32-.32l-.05-16.88a.32.32 0 0 1 .32-.32h29.36a.32.32 0 0 0 .32-.32v-15.86a.32.32 0 0 0-.32-.32h-49.61a.32.32 0 0 0-.32.32v86.2a.32.32 0 0 0 .32.32l51.11-.11a.32.32 0 0 0 .32-.32v-15.84a.32.32 0 0 0-.32-.32h-30.57ZM467.69 388l17.47 58.39q.27.9 1.21.9l21.74-.05q.55 0 .54-.54l-.2-85.97a.4.4 0 0 0-.4-.39l-17.93.19q-.35.01-.35.35l-.09 55.37a.29.29 0 0 1-.56.08l-16.48-55.32a.69.68-7.8 0 0-.66-.49l-22.46-.06a.52.52 0 0 0-.52.52v85.48q0 .77.77.78l16.93.05q.55 0 .55-.55v-58.68a.23.22 37 0 1 .44-.06Zm-215.98 19.97-5.53 13.11a.49.48 11.3 0 0 .45.67h4.87q.5 0 .5-.5v-13.23a.15.15 0 0 0-.29-.05Zm76.14 48.02-5.33-24.76a.2.2 0 0 0-.39.05l.16 24.46q.01.78-.77.78l-87.61.16q-.45 0-.6.42-15.57 46.4-23.85 94.64-1.63 9.53-4.78 42.4c-.26 2.78-.18 5.63-.18 8.38a.73.73 0 0 0 .73.73h149.03a.42.42 0 0 0 .42-.43c-1.44-57.62 7.47-114.11 23.29-169.41 1.64-5.7.7-13.22.81-19.18a.15.15 0 0 0-.29-.03l-9.5 41.78q-.12.54-.66.54l-39.77.04q-.58 0-.71-.57Zm-36.32-34.24h28.02q.82 0 .66-.8l-.91-4.66q0-.03-.14.05-.09.05-.29-.02h-.01q.68 1.55.2 3.1-.17.58-.78.58h-26.53q-.75 0-.75.75v.47a.53.53 0 0 0 .53.53Z"/><path fill="#ff6803" d="M465.11 131.61 339.7 246.41a.35.35 0 0 1-.24.09H133.1a.35.35 0 0 1-.35-.35v-114.8a.35.35 0 0 1 .35-.35h331.77a.35.35 0 0 1 .24.61Z"/><path fill="#fe030f" d="m345.42 351.19-63.2-.08q-.79 0-.37-.67 25.67-41.56 55.45-80.39c8.07-10.53 17.42-19.97 28.36-30.01q58.56-53.75 118.55-108.53a1.91 1.91 0 0 1 1.3-.51h11.24q.5 0 .5.5l.01 109.01q0 .66-.48 1.12c-33.14 32.34-61.74 67.86-84.56 108.22-1.04 1.83-1.56 1.45-3.47 1.42q-17.77-.32-56.85.05-.48 0-.55.48l-2.36 15.66a.23.23 0 0 1-.46 0l-2.35-15.62q-.1-.65-.76-.65Z"/><path fill="#006546" d="M164.25 411.34v19.07a.34.34 0 0 0 .34.34l30.57.32a.34.34 0 0 1 .34.34v15.48a.34.34 0 0 1-.34.34l-51.07.13a.34.34 0 0 1-.34-.34v-86.21a.34.34 0 0 1 .34-.34l49.57.04a.34.34 0 0 1 .34.34v15.81a.34.34 0 0 1-.34.34h-29.07a.34.34 0 0 0-.34.34v16.68a.34.34 0 0 0 .34.34l27.32.2a.34.34 0 0 1 .34.34v15.76a.34.34 0 0 1-.34.34h-27.32a.34.34 0 0 0-.34.34ZM225.56 430.72l29.13.32a.31.31 0 0 1 .31.31v15.59a.31.31 0 0 1-.31.31l-49.54.01a.31.31 0 0 1-.31-.31l.06-86.14a.31.31 0 0 1 .31-.31h19.73a.31.31 0 0 1 .31.31v69.6a.31.31 0 0 0 .31.31ZM281.75 377.32v16.86a.32.32 0 0 0 .32.32h27.5a.32.32 0 0 1 .32.32l-.15 15.86a.32.32 0 0 1-.32.32h-27.15a.32.32 0 0 0-.32.32l-.21 19.04a.32.32 0 0 0 .32.32l30.62.38a.32.32 0 0 1 .32.32v15.56a.32.32 0 0 1-.32.32l-51.11-.02a.32.32 0 0 1-.32-.32v-86.08a.32.32 0 0 1 .32-.32l49.86-.1a.32.32 0 0 1 .32.32v15.94a.32.32 0 0 1-.32.32h-29.36a.32.32 0 0 0-.32.32ZM349.04 426.46l10.23-65.65a.34.34 0 0 1 .33-.29l21.22-.06a.34.34 0 0 1 .34.42l-19.55 86.15a.34.34 0 0 1-.33.27l-25.65-.07a.34.34 0 0 1-.33-.27l-18.91-86.24a.34.34 0 0 1 .33-.41l21.15-.06a.34.34 0 0 1 .33.29l10.17 65.92a.34.34 0 0 0 .67 0ZM408.86 430.75h30.57a.32.32 0 0 1 .32.32v15.84a.32.32 0 0 1-.32.32l-51.11.11a.32.32 0 0 1-.32-.32v-86.2a.32.32 0 0 1 .32-.32h49.61a.32.32 0 0 1 .32.32v15.86a.32.32 0 0 1-.32.32h-29.36a.32.32 0 0 0-.32.32l.05 16.88a.32.32 0 0 0 .32.32l27.56-.06a.32.32 0 0 1 .32.32v15.9a.32.32 0 0 1-.32.32h-27.45a.32.32 0 0 0-.32.32l.13 19.11a.32.32 0 0 0 .32.32ZM467.69 388a.23.22 37 0 0-.44.06v58.68q0 .55-.55.55l-16.93-.05q-.77-.01-.77-.78v-85.48a.52.52 0 0 1 .52-.52l22.46.06a.69.68-7.8 0 1 .66.49l16.48 55.32a.29.29 0 0 0 .56-.08l.09-55.37q0-.34.35-.35l17.93-.19a.4.4 0 0 1 .4.39l.2 85.97q.01.54-.54.54l-21.74.05q-.94 0-1.21-.9L467.69 388Z"/><path fill="#fe030f" d="M251.71 407.97a.15.15 0 0 1 .29.05v13.23q0 .5-.5.5h-4.87a.49.48 11.3 0 1-.45-.67l5.53-13.11ZM328.56 456.56l39.77-.04q.54 0 .66-.54l9.5-41.78a.15.15 0 0 1 .29.03c-.11 5.96.83 13.48-.81 19.18-15.82 55.3-24.73 111.79-23.29 169.41a.42.42 0 0 1-.42.43H205.23a.73.73 0 0 1-.73-.73c0-2.75-.08-5.6.18-8.38q3.15-32.87 4.78-42.4 8.28-48.24 23.85-94.64.15-.42.6-.42l87.61-.16q.78 0 .77-.78l-.16-24.46a.2.2 0 0 1 .39-.05l5.33 24.76q.13.57.71.57ZM291.53 421.75a.53.53 0 0 1-.53-.53v-.47q0-.75.75-.75h26.53q.61 0 .78-.58.48-1.55-.2-3.1h.01q.2.07.29.02.14-.08.14-.05l.91 4.66q.16.8-.66.8h-28.02Z"/></svg>