<svg xmlns="http://www.w3.org/2000/svg" viewBox="0 0 300 300"><g fill="none" stroke-width="2"><path stroke="#b40a09" stroke-opacity=".682" d="M300 1.01H2.16a1.13 1.13 0 0 0-1.13 1.13V300" vector-effect="non-scaling-stroke"/><path stroke="#cb6605" d="M170.65 152.21c-1.86-14.6-18.14-21.86-26.24-32.06-11.26-14.18-7.23-28.51 3.33-41.43a1.44 1.43 36.3 0 0-.33-2.12C129 64.69 104.66 71.56 94.28 90.54c-9.67 17.7-1.21 36.73 9.43 51.62 12.58 17.61 30.91 31.07 50.6 39.73.93.41 2.5.22 3.15-.22q15.62-10.36 13.19-29.46" vector-effect="non-scaling-stroke"/><path stroke="#eb8684" d="M212.04 95.04c-9.71-15.99-34.02-15.51-42.86.32-4.82 8.63-1.64 20.92 6.25 27.2 9.14 7.28 17.83 14.02 18.41 26.2q.03.61.49.21c14.08-12.28 29.27-34.9 17.71-53.93M157.341 203.662a4.71 3.97-29.2 0 0-6.048-1.168 4.71 3.97-29.2 0 0-2.174 5.764 4.71 3.97-29.2 0 0 6.048 1.167 4.71 3.97-29.2 0 0 2.174-5.763M85.61 229.22c-1.57 4.44-8.99 1.16-11.68-.52a.7.7 0 0 0-.97.23l-2.99 4.9a1.8 1.8 0 0 0 .78 2.57q7.5 3.46 14.52 2.21c7.87-1.4 13.63-9.84 7.73-16.46-2.16-2.42-5.89-3.82-8.96-5.28a2.39 2.38-68.8 0 1-1.26-2.86c1.24-4.05 6.12-1.59 8.57.18a1.26 1.25 57.9 0 0 .95.22q4.12-.64 5.49-4.7.16-.46-.22-.77c-7.87-6.61-24.56-6.27-24.24 7.12.16 6.4 6.3 8.2 10.95 10.15a2.4 2.39 21.2 0 1 1.33 3.01M135.02 214.05c-3.95-3.31-7.13-1.54-7.74 3.19q-1.27 9.9-3.32 19.83a.77.77 0 0 0 .67.91l5.79.62a1.21 1.18 24.7 0 0 .98-.35c4.14-4.19.2-22.32 10.61-18.61a.68.67-65.4 0 0 .81-.31c4.73-8.56-1.37-8.58-6.84-5.21a.81.8-40.5 0 1-.96-.07M181.56 213.69c-9.04-3.9-20.28-1.14-23.26 9.32-2.43 8.53-.05 20.59 12.17 14.31a1.08 1.06-45.6 0 1 .94-.02c2.43 1.17 5.39 1.99 7.48-.06q.36-.34.42-.84 1.32-10.02 3.31-19.87.45-2.19-1.06-2.84M195 213.76q-3.11-2.35-6.48-.38a.89.89 0 0 0-.44.63l-3.79 22.58a1.4 1.4 0 0 0 1.21 1.63c2.14.27 6.39 1.16 7.02-1.97q1.4-7.07 2.74-14.15c.33-1.76.99-2.96 2.73-3.33 2.2-.49 2.71.91 2.45 2.77q-1.01 7.04-2.37 14.02c-.78 4 5.34 2.93 7.43 2.43q.51-.12.65-.64 2.61-9.71 3.13-19.72c.36-7.02-8.7-6.21-12.45-3.8a1.61 1.61 0 0 1-1.83-.07M235.81 213.69c-9.21-3.98-20.1-1.15-23.3 8.85-2.8 8.77-.39 20.83 12.36 14.74a1.1 1.07 44.3 0 1 .93 0c2.39 1.15 5.06 1.99 7.17.1q.38-.34.45-.84 1.31-10.13 3.37-20.02.46-2.21-.98-2.83" vector-effect="non-scaling-stroke"/><path stroke="#eb8684" d="M102.97 238.3c20.26 5.08 25.5-23.85 12.34-25.86-7.98-1.22-14.21 2.39-16.73 9.99-1.37 4.14-1.42 14.41 4.39 15.87M155.26 213.12q-3.35-.91-6.78-.15a1.21 1.2-1.1 0 0-.94.97q-1.92 10.62-3.81 21.3c-.79 4.49 3.86 2.89 6.22 3.03a1.84 1.84 0 0 0 1.91-1.52l3.94-22.78a.75.74 12.7 0 0-.54-.85M170.94 232.13l2.94-12.05a1.41 1.41 0 0 0-1.04-1.7l-.75-.18a5.98 4.14-76.3 0 0-5.43 4.83l-.78 3.17a5.98 4.14-76.3 0 0 2.61 6.79l.75.18a1.41 1.41 0 0 0 1.7-1.04M226.65 218.12c-5.84-.55-7.11 8.47-6.61 12.34.52 3.96 5.41 2.74 6.07-.89q.93-5.18 1.76-9.84a1.37 1.37 0 0 0-1.22-1.61" vector-effect="non-scaling-stroke"/><path stroke="#eb8684" d="M108.498 232.904a7.51 3.35 101.3 0 0 4.757-6.708 7.51 3.35 101.3 0 0-1.813-8.02 7.51 3.35 101.3 0 0-4.757 6.708 7.51 3.35 101.3 0 0 1.813 8.02" vector-effect="non-scaling-stroke"/></g><path fill="#530106" fill-opacity=".365" d="M0 0h1.31q.34.6 1.15.43.84-.18 1.1-.18H300v.76H2.16a1.13 1.13 0 0 0-1.13 1.13V300H.26L0 2.19V0Z"/><path fill="#750101" fill-opacity=".627" d="M1.31 0H300v.25H3.56q-.26 0-1.1.18Q1.65.6 1.31 0Z"/><path fill="#d80d0a" d="M300 1.01V300H1.03V2.14a1.13 1.13 0 0 1 1.13-1.13H300Zm-129.35 151.2c-1.86-14.6-18.14-21.86-26.24-32.06-11.26-14.18-7.23-28.51 3.33-41.43a1.44 1.43 36.3 0 0-.33-2.12C129 64.69 104.66 71.56 94.28 90.54c-9.67 17.7-1.21 36.73 9.43 51.62 12.58 17.61 30.91 31.07 50.6 39.73.93.41 2.5.22 3.15-.22q15.62-10.36 13.19-29.46Zm41.39-57.17c-9.71-15.99-34.02-15.51-42.86.32-4.82 8.63-1.64 20.92 6.25 27.2 9.14 7.28 17.83 14.02 18.41 26.2q.03.61.49.21c14.08-12.28 29.27-34.9 17.71-53.93Zm-54.698 108.622a4.71 3.97-29.2 0 0-6.049-1.168 4.71 3.97-29.2 0 0-2.174 5.764 4.71 3.97-29.2 0 0 6.048 1.167 4.71 3.97-29.2 0 0 2.174-5.763ZM85.61 229.22c-1.57 4.44-8.99 1.16-11.68-.52a.7.7 0 0 0-.97.23l-2.99 4.9a1.8 1.8 0 0 0 .78 2.57q7.5 3.46 14.52 2.21c7.87-1.4 13.63-9.84 7.73-16.46-2.16-2.42-5.89-3.82-8.96-5.28a2.39 2.38-68.8 0 1-1.26-2.86c1.24-4.05 6.12-1.59 8.57.18a1.26 1.25 57.9 0 0 .95.22q4.12-.64 5.49-4.7.16-.46-.22-.77c-7.87-6.61-24.56-6.27-24.24 7.12.16 6.4 6.3 8.2 10.95 10.15a2.4 2.39 21.2 0 1 1.33 3.01Zm49.41-15.17c-3.95-3.31-7.13-1.54-7.74 3.19q-1.27 9.9-3.32 19.83a.77.77 0 0 0 .67.91l5.79.62a1.21 1.18 24.7 0 0 .98-.35c4.14-4.19.2-22.32 10.61-18.61a.68.67-65.4 0 0 .81-.31c4.73-8.56-1.37-8.58-6.84-5.21a.81.8-40.5 0 1-.96-.07Zm46.54-.36c-9.04-3.9-20.28-1.14-23.26 9.32-2.43 8.53-.05 20.59 12.17 14.31a1.08 1.06-45.6 0 1 .94-.02c2.43 1.17 5.39 1.99 7.48-.06q.36-.34.42-.84 1.32-10.02 3.31-19.87.45-2.19-1.06-2.84Zm13.44.07q-3.11-2.35-6.48-.38a.89.89 0 0 0-.44.63l-3.79 22.58a1.4 1.4 0 0 0 1.21 1.63c2.14.27 6.39 1.16 7.02-1.97q1.4-7.07 2.74-14.15c.33-1.76.99-2.96 2.73-3.33 2.2-.49 2.71.91 2.45 2.77q-1.01 7.04-2.37 14.02c-.78 4 5.34 2.93 7.43 2.43q.51-.12.65-.64 2.61-9.71 3.13-19.72c.36-7.02-8.7-6.21-12.45-3.8a1.61 1.61 0 0 1-1.83-.07Zm40.81-.07c-9.21-3.98-20.1-1.15-23.3 8.85-2.8 8.77-.39 20.83 12.36 14.74a1.1 1.07 44.3 0 1 .93 0c2.39 1.15 5.06 1.99 7.17.1q.38-.34.45-.84 1.31-10.13 3.37-20.02.46-2.21-.98-2.83ZM102.97 238.3c20.26 5.08 25.5-23.85 12.34-25.86-7.98-1.22-14.21 2.39-16.73 9.99-1.37 4.14-1.42 14.41 4.39 15.87Zm52.29-25.18q-3.35-.91-6.78-.15a1.21 1.2-1.1 0 0-.94.97q-1.92 10.62-3.81 21.3c-.79 4.49 3.86 2.89 6.22 3.03a1.84 1.84 0 0 0 1.91-1.52l3.94-22.78a.75.74 12.7 0 0-.54-.85Z"/><path fill="#750101" fill-opacity=".627" d="M0 2.19.26 300H0V2.19Z"/><path fill="#bdbf00" d="M144.41 120.15c8.1 10.2 24.38 17.46 26.24 32.06q2.43 19.1-13.19 29.46c-.65.44-2.22.63-3.15.22-19.69-8.66-38.02-22.12-50.6-39.73-10.64-14.89-19.1-33.92-9.43-51.62C104.66 71.56 129 64.69 147.41 76.6a1.44 1.43 36.3 0 1 .33 2.12c-10.56 12.92-14.59 27.25-3.33 41.43Z"/><path fill="#fefefe" d="M169.18 95.36c8.84-15.83 33.15-16.31 42.86-.32 11.56 19.03-3.63 41.65-17.71 53.93q-.46.4-.49-.21c-.58-12.18-9.27-18.92-18.41-26.2-7.89-6.28-11.07-18.57-6.25-27.2Z"/><ellipse fill="#fefefe" rx="4.71" ry="3.97" transform="rotate(-29.2 471.961 -191.15)"/><path fill="#fefefe" d="M73.93 228.7c2.69 1.68 10.11 4.96 11.68.52a2.4 2.39 21.2 0 0-1.33-3.01c-4.65-1.95-10.79-3.75-10.95-10.15-.32-13.39 16.37-13.73 24.24-7.12q.38.31.22.77-1.37 4.06-5.49 4.7a1.26 1.25 57.9 0 1-.95-.22c-2.45-1.77-7.33-4.23-8.57-.18a2.39 2.38-68.8 0 0 1.26 2.86c3.07 1.46 6.8 2.86 8.96 5.28 5.9 6.62.14 15.06-7.73 16.46q-7.02 1.25-14.52-2.21a1.8 1.8 0 0 1-.78-2.57l2.99-4.9a.7.7 0 0 1 .97-.23ZM135.98 214.12c5.47-3.37 11.57-3.35 6.84 5.21a.68.67-65.4 0 1-.81.31c-10.41-3.71-6.47 14.42-10.61 18.61a1.21 1.18 24.7 0 1-.98.35l-5.79-.62a.77.77 0 0 1-.67-.91q2.05-9.93 3.32-19.83c.61-4.73 3.79-6.5 7.74-3.19a.81.8-40.5 0 0 .96.07ZM181.56 213.69q1.51.65 1.06 2.84-1.99 9.85-3.31 19.87-.06.5-.42.84c-2.09 2.05-5.05 1.23-7.48.06a1.08 1.06-45.6 0 0-.94.02c-12.22 6.28-14.6-5.78-12.17-14.31 2.98-10.46 14.22-13.22 23.26-9.32Zm-10.62 18.44 2.94-12.05a1.41 1.41 0 0 0-1.04-1.7l-.75-.18a5.98 4.14-76.3 0 0-5.43 4.83l-.78 3.17a5.98 4.14-76.3 0 0 2.61 6.79l.75.18a1.41 1.41 0 0 0 1.7-1.04ZM195 213.76a1.61 1.61 0 0 0 1.83.07c3.75-2.41 12.81-3.22 12.45 3.8q-.52 10.01-3.13 19.72-.14.52-.65.64c-2.09.5-8.21 1.57-7.43-2.43q1.36-6.98 2.37-14.02c.26-1.86-.25-3.26-2.45-2.77-1.74.37-2.4 1.57-2.73 3.33q-1.34 7.08-2.74 14.15c-.63 3.13-4.88 2.24-7.02 1.97a1.4 1.4 0 0 1-1.21-1.63l3.79-22.58a.89.89 0 0 1 .44-.63q3.37-1.97 6.48.38ZM235.81 213.69q1.44.62.98 2.83-2.06 9.89-3.37 20.02-.07.5-.45.84c-2.11 1.89-4.78 1.05-7.17-.1a1.1 1.07 44.3 0 0-.93 0c-12.75 6.09-15.16-5.97-12.36-14.74 3.2-10 14.09-12.83 23.3-8.85Zm-9.16 4.43c-5.84-.55-7.11 8.47-6.61 12.34.52 3.96 5.41 2.74 6.07-.89q.93-5.18 1.76-9.84a1.37 1.37 0 0 0-1.22-1.61Z"/><path fill="#fefefe" d="M115.31 212.44c13.16 2.01 7.92 30.94-12.34 25.86-5.81-1.46-5.76-11.73-4.39-15.87 2.52-7.6 8.75-11.21 16.73-9.99Zm-6.812 20.464a7.51 3.35 101.3 0 0 4.757-6.708 7.51 3.35 101.3 0 0-1.813-8.02 7.51 3.35 101.3 0 0-4.757 6.708 7.51 3.35 101.3 0 0 1.813 8.02ZM155.26 213.12a.75.74 12.7 0 1 .54.85l-3.94 22.78a1.84 1.84 0 0 1-1.91 1.52c-2.36-.14-7.01 1.46-6.22-3.03q1.89-10.68 3.81-21.3a1.21 1.2-1.1 0 1 .94-.97q3.43-.76 6.78.15Z"/><path fill="#d80d0a" d="M170.94 232.13a1.41 1.41 0 0 1-1.7 1.04l-.75-.18a5.98 4.14-76.3 0 1-2.61-6.79l.78-3.17a5.98 4.14-76.3 0 1 5.43-4.83l.75.18a1.41 1.41 0 0 1 1.04 1.7l-2.94 12.05ZM226.65 218.12a1.37 1.37 0 0 1 1.22 1.61q-.83 4.66-1.76 9.84c-.66 3.63-5.55 4.85-6.07.89-.5-3.87.77-12.89 6.61-12.34Z"/><ellipse fill="#d80d0a" rx="7.51" ry="3.35" transform="rotate(101.3 -37.48 157.855)"/></svg>